<?xml version="1.0" standalone="no"?>
<!DOCTYPE svg PUBLIC "-//W3C//DTD SVG 20010904//EN"
 "http://www.w3.org/TR/2001/REC-SVG-20010904/DTD/svg10.dtd">
<svg version="1.0" xmlns="http://www.w3.org/2000/svg"
 width="374.000000pt" height="378.000000pt" viewBox="0 0 374.000000 378.000000"
 preserveAspectRatio="xMidYMid meet">

<g transform="translate(0.000000,378.000000) scale(0.100000,-0.100000)"
fill="#000000" stroke="none">
<path d="M326 3686 c-78 -29 -126 -99 -126 -185 0 -112 78 -191 190 -191 65 0
108 18 147 63 80 91 62 227 -38 289 -54 34 -121 43 -173 24z m123 -76 c79 -40
92 -137 26 -197 -27 -26 -43 -33 -75 -33 -85 0 -137 55 -127 137 5 49 27 79
72 99 41 18 60 17 104 -6z"/>
<path d="M3200 3405 l0 -136 133 3 132 3 3 133 3 132 -136 0 -135 0 0 -135z
m200 0 l0 -65 -65 0 -65 0 0 65 0 65 65 0 65 0 0 -65z"/>
<path d="M777 3052 c-93 -144 -167 -266 -165 -271 1 -6 275 -283 607 -616
l605 -606 86 88 c48 48 277 284 510 523 233 239 463 476 512 525 l88 90 -83
135 c-45 75 -116 191 -157 258 l-74 122 -681 0 c-374 0 -770 3 -880 6 l-200 7
-168 -261z m701 174 c1 -2 -50 -78 -114 -170 -94 -134 -119 -165 -129 -154
-15 17 -193 300 -200 320 -5 12 27 13 217 10 123 -2 224 -5 226 -6z m562 -38
c-17 -24 -72 -100 -123 -170 -51 -70 -95 -127 -98 -127 -4 -1 -202 277 -232
326 -7 11 38 13 238 13 l247 0 -32 -42z m559 5 c-22 -36 -93 -149 -162 -256
-25 -38 -33 -45 -43 -35 -10 11 -196 280 -219 318 -4 7 71 10 220 10 l227 0
-23 -37z m-1525 -171 c58 -93 108 -175 111 -183 4 -12 -29 -14 -230 -14 -129
0 -235 2 -235 4 0 12 236 369 242 365 3 -2 54 -80 112 -172z m1734 -24 c56
-93 98 -168 94 -168 -93 -5 -442 -3 -442 2 0 4 50 87 111 183 90 142 114 174
124 163 6 -7 58 -88 113 -180z m-1135 -30 c48 -70 87 -130 87 -135 0 -4 -103
-8 -230 -8 -126 0 -230 3 -230 7 0 7 163 247 208 305 l24 33 27 -38 c15 -20
66 -94 114 -164z m562 39 c61 -89 110 -165 110 -170 0 -4 -107 -8 -238 -10
-162 -2 -236 1 -233 8 6 17 240 335 246 335 3 0 55 -74 115 -163z m-924 -264
c7 -7 394 -903 420 -973 6 -14 -215 200 -491 475 -275 275 -500 502 -500 505
0 8 563 1 571 -7z m935 -6 c-13 -50 -422 -985 -428 -979 -6 6 -428 985 -428
994 0 1 194 3 431 3 413 0 430 -1 425 -18z m631 9 c-4 -11 -971 -1004 -974
-1001 -2 1 92 222 208 491 116 269 213 494 216 501 3 6 12 13 21 15 40 8 532
2 529 -6z"/>
<path d="M3035 2079 c-51 -14 -111 -74 -129 -126 -9 -25 -16 -56 -16 -67 0
-44 23 -99 56 -136 96 -106 268 -86 332 40 80 159 -72 339 -243 289z m108 -73
c108 -46 116 -198 12 -242 -49 -20 -87 -18 -126 9 -92 61 -84 190 15 233 40
17 59 17 99 0z"/>
<path d="M695 2061 c-3 -2 -5 -46 -5 -98 l0 -93 -100 0 -100 0 0 -35 0 -35
100 0 100 0 0 -95 0 -95 35 0 35 0 0 95 0 95 99 0 c105 0 111 3 103 47 -4 22
-8 23 -103 23 l-99 0 0 100 0 100 -30 -2 c-17 -1 -33 -4 -35 -7z"/>
<path d="M2850 1335 l0 -35 -230 0 -230 0 0 -49 0 -49 -61 25 c-181 73 -439
103 -596 70 -180 -39 -317 -123 -438 -270 l-40 -48 -115 46 c-163 66 -528 188
-656 220 -161 41 -284 27 -328 -37 -64 -91 4 -228 224 -449 183 -184 370 -301
609 -379 262 -85 450 -99 1358 -100 l502 0 3 -32 3 -33 368 -2 c202 -1 374 0
382 3 13 5 15 81 15 580 l0 574 -385 0 -385 0 0 -35z m700 -539 c0 -326 -4
-506 -10 -508 -5 -2 -163 -2 -350 0 l-340 3 0 504 0 505 350 0 350 0 0 -504z
m-1400 414 c47 -13 120 -36 163 -52 l77 -30 0 -390 0 -391 -437 7 c-494 7
-630 16 -792 52 -164 37 -350 112 -475 192 -240 154 -505 456 -482 549 14 54
113 67 254 33 204 -49 777 -255 797 -287 29 -46 75 -89 115 -107 41 -18 69
-21 293 -24 l247 -4 0 41 0 42 -245 -2 c-269 -1 -282 2 -328 63 -26 35 -17 54
67 138 95 94 187 147 310 181 99 27 313 21 436 -11z m630 -420 l0 -440 -160 0
-160 0 0 440 0 440 160 0 160 0 0 -440z"/>
<path d="M3014 576 c-3 -8 -4 -63 -2 -123 l3 -108 178 -3 177 -2 0 125 0 125
-175 0 c-143 0 -177 -3 -181 -14z m286 -111 l0 -55 -107 0 -108 0 -1 55 0 55
108 0 108 0 0 -55z"/>
</g>
</svg>
