<?xml version="1.0" standalone="no"?>
<!DOCTYPE svg PUBLIC "-//W3C//DTD SVG 20010904//EN"
 "http://www.w3.org/TR/2001/REC-SVG-20010904/DTD/svg10.dtd">
<svg version="1.0" xmlns="http://www.w3.org/2000/svg"
 width="41.000000pt" height="41.000000pt" viewBox="0 0 41.000000 41.000000"
 preserveAspectRatio="xMidYMid meet">

<g transform="translate(0.000000,41.000000) scale(0.100000,-0.100000)"
fill="#000000" stroke="none">
<path d="M155 385 c-14 -13 -25 -36 -25 -50 0 -35 42 -75 78 -75 36 0 72 37
72 74 0 34 -41 76 -75 76 -14 0 -37 -11 -50 -25z m102 -22 c33 -49 -31 -113
-80 -80 -29 18 -37 44 -26 75 17 45 78 48 106 5z"/>
<path d="M181 354 c-13 -15 -16 -24 -9 -23 7 1 22 1 33 0 19 -2 19 -3 3 -15
-10 -7 -15 -16 -11 -19 9 -9 33 12 33 29 0 8 -7 14 -15 14 -8 0 -15 5 -15 11
0 6 7 9 15 5 8 -3 15 -1 15 3 0 21 -29 17 -49 -5z"/>
<path d="M350 359 c0 -5 -5 -7 -12 -3 -7 4 -8 3 -4 -4 4 -6 13 -9 20 -6 20 7
30 -14 16 -31 -10 -12 -15 -11 -31 8 -10 12 -18 16 -19 10 0 -7 4 -13 10 -13
5 0 7 -8 3 -17 -3 -10 -3 -15 2 -11 4 4 14 3 22 -3 9 -8 13 -8 13 -1 0 7 7 9
17 5 12 -5 15 -2 10 10 -4 10 -1 17 6 17 8 0 8 3 -2 9 -8 5 -10 14 -6 22 6 9
3 11 -8 6 -10 -3 -17 -2 -17 3 0 6 -4 10 -10 10 -5 0 -10 -5 -10 -11z"/>
<path d="M3 254 c-8 -21 13 -42 28 -27 13 13 5 43 -11 43 -6 0 -13 -7 -17 -16z"/>
<path d="M87 253 c-4 -3 -7 -19 -7 -34 0 -18 -9 -34 -26 -47 -21 -15 -26 -24
-21 -43 6 -24 67 -67 67 -48 0 5 -11 15 -25 21 -32 14 -32 40 -1 71 16 16 23
32 19 45 -6 25 11 36 27 17 14 -17 126 -22 115 -5 -3 6 -28 10 -55 10 -27 0
-52 5 -55 10 -7 11 -28 13 -38 3z"/>
<path d="M270 240 c-11 -11 -20 -27 -20 -35 0 -19 36 -55 55 -55 19 0 55 36
55 55 0 19 -36 55 -55 55 -8 0 -24 -9 -35 -20z m65 -11 c4 -5 4 -21 1 -35 -5
-20 -12 -25 -34 -22 -27 3 -39 25 -28 54 6 16 52 19 61 3z"/>
<path d="M297 211 c-17 -6 -17 -8 -4 -20 13 -10 17 -9 27 8 11 22 7 24 -23 12z"/>
<path d="M183 203 c9 -2 23 -2 30 0 6 3 -1 5 -18 5 -16 0 -22 -2 -12 -5z"/>
<path d="M105 170 c-3 -5 -1 -10 4 -10 6 0 11 5 11 10 0 6 -2 10 -4 10 -3 0
-8 -4 -11 -10z"/>
<path d="M357 150 c-3 -13 -10 -18 -21 -14 -11 4 -16 1 -16 -10 0 -9 -11 -28
-24 -41 -17 -17 -22 -31 -19 -49 6 -32 -22 -37 -32 -6 -3 11 -10 20 -15 20 -5
0 -4 -11 2 -25 7 -16 19 -25 35 -25 22 0 27 8 24 41 -2 17 51 79 67 79 10 0
22 23 22 41 0 17 -18 9 -23 -11z"/>
<path d="M104 46 c-7 -31 1 -46 26 -46 17 0 40 26 40 44 0 16 -18 3 -23 -15
-8 -30 -33 -18 -29 14 4 34 -6 35 -14 3z"/>
<path d="M185 40 c4 -6 11 -8 16 -5 14 9 11 15 -7 15 -8 0 -12 -5 -9 -10z"/>
</g>
</svg>
