<?xml version="1.0" standalone="no"?>
<!DOCTYPE svg PUBLIC "-//W3C//DTD SVG 20010904//EN"
 "http://www.w3.org/TR/2001/REC-SVG-20010904/DTD/svg10.dtd">
<svg version="1.0" xmlns="http://www.w3.org/2000/svg"
 width="41.000000pt" height="30.000000pt" viewBox="0 0 41.000000 30.000000"
 preserveAspectRatio="xMidYMid meet">

<g transform="translate(0.000000,30.000000) scale(0.100000,-0.100000)"
fill="#000000" stroke="none">
<path d="M33 293 c-8 -3 -13 -24 -13 -54 0 -27 -5 -49 -10 -49 -7 0 -10 -33
-8 -92 l3 -93 105 1 c58 0 118 3 133 8 25 6 28 11 23 31 -5 18 -2 25 8 25 9 0
16 -12 18 -33 3 -32 3 -32 58 -32 l55 0 3 69 c2 39 -2 74 -8 80 -5 5 -10 38
-10 72 0 47 -4 63 -16 68 -19 7 -323 7 -341 -1z m341 -19 c3 -9 6 -38 6 -65
l0 -49 -34 0 c-18 0 -39 -7 -46 -15 -8 -10 -30 -15 -61 -15 -48 0 -49 1 -49
30 l0 30 -74 0 -74 0 -4 40 c-2 22 1 45 6 50 6 6 78 10 167 10 134 0 158 -2
163 -16z m-232 -101 c-23 -2 -61 -2 -85 0 -23 2 -4 4 43 4 47 0 66 -2 42 -4z
m38 -78 l0 -55 -82 0 -83 0 0 55 0 55 83 0 82 0 0 -55z m215 45 c4 -6 -12 -9
-42 -9 l-48 2 40 7 c22 4 41 8 42 9 1 0 5 -3 8 -9z m-105 -35 c0 -11 -12 -15
-50 -15 -38 0 -50 4 -50 15 0 11 12 15 50 15 38 0 50 -4 50 -15z m108 -27 l3
-38 -45 0 -46 0 0 41 0 40 43 -3 c41 -3 42 -4 45 -40z m-153 -18 c4 -6 -7 -10
-24 -10 -17 0 -31 5 -31 10 0 6 11 10 24 10 14 0 28 -4 31 -10z m-7 -27 c-10
-2 -26 -2 -35 0 -10 3 -2 5 17 5 19 0 27 -2 18 -5z m-58 -13 c0 -6 -33 -10
-80 -10 -47 0 -80 4 -80 10 0 6 33 10 80 10 47 0 80 -4 80 -10z m210 0 c0 -5
-18 -10 -40 -10 -22 0 -40 5 -40 10 0 6 18 10 40 10 22 0 40 -4 40 -10z"/>
<path d="M245 259 c-11 -17 1 -21 15 -4 8 9 8 15 2 15 -6 0 -14 -5 -17 -11z"/>
<path d="M255 230 c-10 -11 -14 -20 -9 -20 12 1 44 25 44 34 0 12 -17 6 -35
-14z"/>
<path d="M195 220 c-10 -11 -14 -20 -8 -20 5 0 18 9 28 20 10 11 14 20 8 20
-5 0 -18 -9 -28 -20z"/>
<path d="M210 195 c-8 -9 -8 -15 -2 -15 12 0 26 19 19 26 -2 2 -10 -2 -17 -11z"/>
<path d="M94 126 c-10 -8 -17 -17 -14 -19 3 -3 16 3 30 13 29 22 14 27 -16 6z"/>
<path d="M105 95 c-22 -19 -35 -34 -30 -34 14 -1 81 56 75 63 -3 2 -23 -11
-45 -29z"/>
<path d="M50 90 c-8 -5 -12 -11 -9 -14 2 -3 11 -1 19 4 8 5 12 11 9 14 -2 3
-11 1 -19 -4z"/>
<path d="M335 89 c-11 -17 1 -21 15 -4 8 9 8 15 2 15 -6 0 -14 -5 -17 -11z"/>
<path d="M349 63 c-13 -15 -12 -15 9 -4 23 12 28 21 13 21 -5 0 -15 -7 -22
-17z"/>
</g>
</svg>
